<svg id="visual" viewBox="0 0 900 600" width="900" height="600" xmlns="http://www.w3.org/2000/svg" xmlns:xlink="http://www.w3.org/1999/xlink" version="1.1"><path d="M0 61L13.7 66C27.3 71 54.7 81 82 81C109.3 81 136.7 71 163.8 68C191 65 218 69 245.2 76C272.3 83 299.7 93 327 97C354.3 101 381.7 99 409 92C436.3 85 463.7 73 491 63C518.3 53 545.7 45 573 51C600.3 57 627.7 77 654.8 82C682 87 709 77 736.2 71C763.3 65 790.7 63 818 64C845.3 65 872.7 69 886.3 71L900 73L900 0L886.3 0C872.7 0 845.3 0 818 0C790.7 0 763.3 0 736.2 0C709 0 682 0 654.8 0C627.7 0 600.3 0 573 0C545.7 0 518.3 0 491 0C463.7 0 436.3 0 409 0C381.7 0 354.3 0 327 0C299.7 0 272.3 0 245.2 0C218 0 191 0 163.8 0C136.7 0 109.3 0 82 0C54.7 0 27.3 0 13.7 0L0 0Z" fill="#002e70"></path><path d="M0 157L13.7 163C27.3 169 54.7 181 82 203C109.3 225 136.7 257 163.8 278C191 299 218 309 245.2 310C272.3 311 299.7 303 327 304C354.3 305 381.7 315 409 308C436.3 301 463.7 277 491 257C518.3 237 545.7 221 573 212C600.3 203 627.7 201 654.8 209C682 217 709 235 736.2 233C763.3 231 790.7 209 818 216C845.3 223 872.7 259 886.3 277L900 295L900 71L886.3 69C872.7 67 845.3 63 818 62C790.7 61 763.3 63 736.2 69C709 75 682 85 654.8 80C627.7 75 600.3 55 573 49C545.7 43 518.3 51 491 61C463.7 71 436.3 83 409 90C381.7 97 354.3 99 327 95C299.7 91 272.3 81 245.2 74C218 67 191 63 163.8 66C136.7 69 109.3 79 82 79C54.7 79 27.3 69 13.7 64L0 59Z" fill="#1345a0"></path><path d="M0 391L13.7 396C27.3 401 54.7 411 82 417C109.3 423 136.7 425 163.8 432C191 439 218 451 245.2 447C272.3 443 299.7 423 327 413C354.3 403 381.7 403 409 407C436.3 411 463.7 419 491 420C518.3 421 545.7 415 573 407C600.3 399 627.7 389 654.8 397C682 405 709 431 736.2 429C763.3 427 790.7 397 818 385C845.3 373 872.7 379 886.3 382L900 385L900 293L886.3 275C872.7 257 845.3 221 818 214C790.7 207 763.3 229 736.2 231C709 233 682 215 654.8 207C627.7 199 600.3 201 573 210C545.7 219 518.3 235 491 255C463.7 275 436.3 299 409 306C381.7 313 354.3 303 327 302C299.7 301 272.3 309 245.2 308C218 307 191 297 163.8 276C136.7 255 109.3 223 82 201C54.7 179 27.3 167 13.7 161L0 155Z" fill="#3461ba"></path><path d="M0 541L13.7 534C27.3 527 54.7 513 82 513C109.3 513 136.7 527 163.8 536C191 545 218 549 245.2 552C272.3 555 299.7 557 327 552C354.3 547 381.7 535 409 527C436.3 519 463.7 515 491 513C518.3 511 545.7 511 573 510C600.3 509 627.7 507 654.8 514C682 521 709 537 736.2 533C763.3 529 790.7 505 818 503C845.3 501 872.7 521 886.3 531L900 541L900 383L886.3 380C872.7 377 845.3 371 818 383C790.7 395 763.3 425 736.2 427C709 429 682 403 654.8 395C627.7 387 600.3 397 573 405C545.7 413 518.3 419 491 418C463.7 417 436.3 409 409 405C381.7 401 354.3 401 327 411C299.7 421 272.3 441 245.2 445C218 449 191 437 163.8 430C136.7 423 109.3 421 82 415C54.7 409 27.3 399 13.7 394L0 389Z" fill="#1345a0"></path><path d="M0 601L13.7 601C27.3 601 54.7 601 82 601C109.3 601 136.7 601 163.8 601C191 601 218 601 245.2 601C272.3 601 299.7 601 327 601C354.3 601 381.7 601 409 601C436.3 601 463.7 601 491 601C518.3 601 545.7 601 573 601C600.3 601 627.7 601 654.8 601C682 601 709 601 736.2 601C763.3 601 790.7 601 818 601C845.3 601 872.7 601 886.3 601L900 601L900 539L886.3 529C872.7 519 845.3 499 818 501C790.7 503 763.3 527 736.2 531C709 535 682 519 654.8 512C627.7 505 600.3 507 573 508C545.7 509 518.3 509 491 511C463.7 513 436.3 517 409 525C381.7 533 354.3 545 327 550C299.7 555 272.3 553 245.2 550C218 547 191 543 163.8 534C136.7 525 109.3 511 82 511C54.7 511 27.3 525 13.7 532L0 539Z" fill="#002e70"></path></svg>